<svg id="Capa_1" enable-background="new 0 0 512 512" height="512" viewBox="0 0 512 512" width="512" xmlns="http://www.w3.org/2000/svg"><g><path d="m437.019 74.981-34.453 34.453c39.149 39.15 60.709 91.201 60.709 146.566 0 114.292-92.983 207.275-207.275 207.275s-207.275-92.983-207.275-207.275 92.983-207.275 207.275-207.275v-48.725c-141.385 0-256 114.615-256 256s114.615 256 256 256 256-114.615 256-256c0-70.692-28.654-134.692-74.981-181.019z"/><path d="m256 78.725c-97.75 0-177.275 79.525-177.275 177.275s79.525 177.275 177.275 177.275 177.275-79.525 177.275-177.275c0-47.352-18.44-91.87-51.922-125.353l-125.353 125.353zm-108.6 209.137h-31.862v-31.862h31.862zm19.485-121.016h31.862v31.862h-31.862zm38.701 174.042h-31.862v-31.862h31.862zm151.575-123.654h31.862v31.862h-31.862zm-55.759 82.842h31.862v31.862h-31.862zm-29.207 57.353v31.862h-31.862v-31.862z"/></g></svg>