<?xml version="1.0" standalone="no"?>
<!DOCTYPE svg PUBLIC "-//W3C//DTD SVG 20010904//EN"
 "http://www.w3.org/TR/2001/REC-SVG-20010904/DTD/svg10.dtd">
<svg version="1.0" xmlns="http://www.w3.org/2000/svg"
 width="707.000000pt" height="706.000000pt" viewBox="0 0 707.000000 706.000000"
 preserveAspectRatio="xMidYMid meet">

<g transform="translate(0.000000,706.000000) scale(0.100000,-0.100000)"
fill="#000000" stroke="none">
<path d="M2 3523 l3 -3518 2 3513 3 3512 3515 0 3515 0 2 -3512 c3 -2836 5
-3512 16 -3514 7 -1 8 0 2 3 -12 6 -15 3483 -2 3483 4 0 7 11 7 25 0 14 -3 25
-7 25 -5 0 -8 788 -8 1750 l0 1750 -3525 0 -3525 0 2 -3517z"/>
<path d="M3075 6930 c-230 -38 -306 -54 -455 -94 -423 -113 -870 -342 -1235
-632 -139 -111 -414 -386 -529 -529 -288 -360 -521 -813 -636 -1240 -88 -323
-115 -544 -115 -930 0 -376 20 -537 110 -895 93 -369 305 -809 543 -1129 306
-411 702 -760 1127 -993 306 -168 703 -309 1025 -364 269 -47 345 -54 580 -54
430 1 623 26 1020 133 258 70 646 249 891 409 249 164 389 278 592 484 278
283 465 548 647 919 131 268 219 531 274 815 9 47 21 105 26 130 37 172 50
629 26 886 -8 94 -21 195 -26 225 -6 30 -16 79 -22 109 -41 214 -132 515 -200
665 -184 406 -318 621 -570 916 -159 187 -421 429 -598 552 -454 317 -874 494
-1415 596 -153 29 -242 34 -585 37 -314 2 -380 0 -475 -16z m865 -219 c278
-37 592 -125 850 -238 115 -51 153 -70 310 -156 82 -44 275 -173 355 -236 164
-129 376 -328 463 -435 31 -39 78 -96 103 -126 65 -77 279 -404 279 -426 0 -3
9 -18 19 -33 16 -23 64 -123 136 -286 64 -144 147 -425 180 -605 38 -215 47
-326 48 -600 0 -285 -9 -389 -53 -610 -109 -537 -349 -1029 -702 -1436 -124
-145 -388 -396 -411 -392 -12 2 -25 24 -41 68 -38 107 -72 175 -115 233 -23
29 -41 61 -41 70 0 9 17 27 38 41 51 32 207 186 271 268 42 54 65 74 114 97
69 33 104 66 136 126 31 60 28 118 -13 199 -38 76 -39 87 -4 249 22 99 22 99
3 250 -10 84 -21 193 -25 242 -8 101 -31 174 -87 273 -21 37 -47 84 -58 105
-27 52 -170 229 -237 294 -42 41 -87 67 -224 132 -218 104 -275 121 -434 128
-306 14 -608 -56 -796 -185 -83 -57 -260 -239 -347 -357 -150 -206 -141 -187
-148 -305 -5 -84 -14 -126 -42 -209 -77 -221 -70 -297 43 -472 22 -34 40 -66
40 -71 0 -5 -18 -28 -40 -51 -46 -51 -60 -83 -60 -140 2 -118 83 -214 198
-233 31 -5 40 -3 45 10 11 27 24 18 63 -41 59 -92 119 -158 205 -226 89 -72
245 -157 332 -182 31 -9 57 -21 57 -26 0 -23 -100 -2 -212 45 -65 27 -73 23
-121 -63 -72 -128 -125 -244 -147 -322 -11 -40 -29 -160 -41 -268 -12 -108
-25 -200 -30 -205 -11 -12 -23 21 -44 114 -44 198 -133 547 -192 750 -36 124
-69 239 -73 255 -16 61 -82 283 -116 391 -40 128 -31 120 -179 154 -144 33
-165 39 -250 65 -44 14 -92 27 -106 30 -14 2 -38 14 -52 26 -22 16 -27 29 -27
62 0 23 4 47 8 53 4 6 35 26 70 43 82 41 154 93 185 134 52 68 75 83 173 113
54 16 100 36 105 45 6 12 -7 37 -52 96 -80 108 -78 111 61 134 114 18 123 23
115 62 -4 17 -21 65 -38 106 -42 102 -36 116 68 153 101 35 225 98 232 116 8
20 -21 44 -122 102 -83 48 -170 110 -187 135 -21 29 -14 34 117 75 145 46 445
205 445 236 0 13 -17 22 -190 94 -203 85 -230 98 -230 113 0 8 26 38 58 68
235 219 332 314 332 324 0 12 -52 22 -285 56 -223 32 -220 31 -223 57 -2 14
13 51 36 90 179 302 252 432 252 443 0 17 -35 9 -140 -32 -163 -63 -351 -129
-370 -129 -17 0 -29 28 -49 115 -18 80 -24 144 -30 345 -7 243 4 232 -149 142
-164 -98 -315 -222 -376 -311 -16 -23 -37 -41 -47 -41 -11 0 -50 44 -105 118
-142 190 -285 352 -311 352 -15 0 -19 -14 -38 -165 -16 -131 -19 -143 -65
-291 -31 -103 -52 -144 -73 -144 -6 0 -53 20 -104 45 -80 39 -125 55 -288 104
-65 19 -105 22 -111 8 -2 -7 13 -51 34 -98 53 -113 71 -157 82 -199 5 -19 16
-62 24 -95 8 -33 15 -72 16 -87 0 -49 -1 -49 -390 -77 -211 -15 -264 -21 -280
-31 -12 -7 14 -38 116 -142 140 -143 165 -173 213 -258 58 -101 57 -97 30
-126 -13 -14 -49 -42 -79 -62 -165 -111 -350 -247 -350 -258 0 -7 19 -18 43
-24 109 -27 237 -75 285 -106 76 -50 174 -151 170 -175 -2 -11 -65 -82 -140
-157 -87 -87 -138 -146 -138 -159 0 -25 29 -38 220 -101 l145 -48 -1 -44 c0
-25 -11 -81 -24 -125 -35 -124 -45 -184 -33 -196 8 -8 37 -8 99 0 120 15 211
14 221 -1 4 -7 10 -60 13 -118 l5 -105 42 2 c40 2 112 31 145 60 15 13 23 10
81 -35 36 -27 102 -65 147 -83 45 -19 86 -42 92 -52 5 -11 7 -34 3 -53 -8 -45
-27 -54 -315 -149 -298 -98 -318 -108 -334 -165 -4 -14 -15 -56 -26 -95 -11
-38 -30 -110 -44 -160 -13 -49 -37 -130 -52 -180 -15 -49 -32 -110 -39 -135
-34 -121 -86 -294 -90 -298 -2 -2 -11 11 -21 30 -18 35 -84 120 -119 153 -12
11 -44 47 -71 80 -410 495 -639 1028 -723 1680 -34 260 -15 700 39 945 6 25
17 79 24 120 35 180 150 500 256 710 92 183 263 439 410 615 326 389 762 703
1240 895 242 96 562 179 781 200 63 7 116 14 119 17 9 9 595 -5 680 -16z
m-1764 -2322 c66 -25 137 -86 167 -144 26 -50 35 -187 15 -225 -16 -29 -48
-31 -187 -11 -85 12 -224 3 -303 -19 -41 -12 -53 -1 -75 66 -15 47 -15 61 -4
105 28 109 98 191 195 228 67 26 122 26 192 0z m687 -119 c88 -22 177 -66 227
-111 30 -28 32 -34 28 -79 -3 -27 -13 -61 -22 -76 -20 -29 -13 -29 -151 2 -90
19 -209 33 -306 33 -102 1 -115 14 -105 107 12 116 42 137 206 142 25 1 80 -7
123 -18z m-1203 -906 c0 -8 -4 -12 -10 -9 -5 3 -10 10 -10 16 0 5 5 9 10 9 6
0 10 -7 10 -16z m50 -203 c0 -30 60 -186 110 -286 53 -106 56 -115 40 -115
-28 0 -117 190 -159 340 -26 92 -27 107 -6 90 8 -7 15 -20 15 -29z m2829 -320
c59 -74 76 -126 76 -231 0 -82 -4 -103 -26 -150 -61 -128 -161 -201 -314 -231
-96 -18 -226 29 -326 118 -76 69 -102 120 -114 228 -8 64 8 85 64 85 20 0 92
7 161 15 265 33 370 78 401 172 14 45 40 42 78 -6z m410 -9 c41 -64 99 -95
241 -131 56 -14 221 -31 295 -31 78 0 95 -11 95 -61 0 -103 -55 -210 -141
-275 -81 -62 -136 -79 -254 -79 -91 0 -106 3 -165 31 -130 62 -222 194 -222
319 0 76 37 182 83 238 17 20 32 37 34 37 1 0 17 -22 34 -48z m-1982 -673 c89
-143 246 -476 283 -599 7 -25 17 -49 22 -54 17 -20 8 -75 -18 -105 -28 -34
-235 -241 -241 -241 -2 0 -3 8 -3 18 0 9 54 69 120 133 136 130 135 128 96
238 -47 135 -245 552 -290 611 -7 8 -18 29 -26 45 -8 17 -16 34 -18 39 -3 5 1
7 9 4 8 -2 38 -42 66 -89z m-159 -31 c33 -131 59 -335 76 -583 13 -184 12
-209 -8 -202 -6 2 -14 41 -18 93 -15 209 -49 517 -68 619 -20 108 -5 167 18
73z m-578 -115 c-1 -223 -25 -533 -41 -533 -19 0 -5 520 17 623 13 62 24 20
24 -90z m-212 -753 c39 -33 72 -67 76 -75 7 -20 -3 -44 -24 -55 -23 -12 -30
-4 -24 30 5 23 -3 34 -55 82 -57 51 -74 78 -52 78 6 0 41 -27 79 -60z"/>
<path d="M2467 6054 c-11 -11 3 -24 24 -24 12 0 19 5 17 13 -5 14 -31 21 -41
11z"/>
<path d="M4720 5610 c-64 -23 -95 -38 -131 -61 -14 -10 -36 -20 -50 -24 -24
-6 -132 -106 -197 -182 -43 -50 -72 -99 -72 -121 0 -10 -4 -22 -8 -27 -19 -21
-53 -138 -59 -199 l-6 -66 797 0 797 0 -7 63 c-7 68 -24 124 -60 204 -13 28
-24 57 -24 63 0 12 -8 23 -67 88 -24 26 -43 52 -43 57 0 6 -24 29 -52 50 -29
22 -60 48 -70 58 -10 9 -25 17 -33 17 -8 0 -35 13 -61 29 -25 17 -60 33 -78
37 -17 3 -34 12 -38 18 -5 7 -82 12 -245 14 -217 2 -243 0 -293 -18z m78 -176
c26 -18 30 -65 6 -88 -10 -10 -33 -16 -65 -16 -79 0 -116 54 -67 100 27 25 93
27 126 4z m458 -9 c13 -20 15 -33 8 -58 -9 -30 -12 -32 -63 -35 -61 -4 -91 15
-91 56 0 40 28 61 82 61 40 1 50 -3 64 -24z m-725 -252 c45 -27 48 -52 8 -85
-38 -32 -69 -35 -110 -11 -51 30 -49 69 4 96 42 21 63 21 98 0z m513 -4 c32
-25 33 -55 4 -86 -31 -33 -90 -32 -117 3 -27 34 -26 50 4 79 30 31 73 32 109
4z m514 1 c41 -25 43 -58 2 -88 -39 -29 -81 -28 -114 3 -29 27 -32 43 -13 67
32 41 77 47 125 18z"/>
<path d="M4132 4774 c-20 -14 -22 -23 -22 -120 0 -103 0 -105 26 -114 28 -11
1681 -14 1708 -4 13 5 16 26 16 124 0 136 6 130 -115 130 -67 -1 -72 -2 -112
-39 -24 -22 -43 -43 -43 -48 -1 -4 -21 -30 -46 -58 -42 -46 -47 -48 -58 -32
-12 21 -18 28 -95 115 l-54 62 -591 0 c-519 0 -594 -2 -614 -16z"/>
<path d="M4202 4251 c3 -133 4 -140 27 -160 24 -21 29 -21 758 -21 485 0 741
4 754 10 38 21 49 62 49 190 l0 120 -796 0 -796 0 4 -139z"/>
<path d="M3523 3 c9 -2 23 -2 30 0 6 3 -1 5 -18 5 -16 0 -22 -2 -12 -5z"/>
</g>
</svg>
